{"title":"Baaghi Hindi 2016 DesiSCR x264-HDF.mp4","uid":15648518,"size":817054898,"categoryP":"video","categoryS":"movies","magnet":"?xt=urn:btih:ed474248971d1f2f0328d4e2a824a27e3323712d&amp;dn=Baaghi+Hindi+2016+DesiSCR+x264-HDF.mp4&amp;tr=udp%3A%2F%2Ftracker.leechers-paradise.org%3A6969&amp;tr=udp%3A%2F%2Fzer0day.ch%3A1337&amp;tr=udp%3A%2F%2Fopen.demonii.com%3A1337&amp;tr=udp%3A%2F%2Ftracker.coppersurfer.tk%3A6969&amp;tr=udp%3A%2F%2Fexodus.desync.com%3A6969","seeders":0,"leechers":1,"uploader":null,"files":1,"time":1472071657,"description":"http://www.movierulzfull.in/ presents:\r\n\r\nBaaghi Hindi 2016 DesiSCR x264-HDF.mp4\r\n\r\nScreens:\r\n \nhttp://extraimago.com/images/2016/08/24/wEXD.png \nhttp://extraimago.com/images/2016/08/24/wEXF.png \nhttp://extraimago.com/images/2016/08/24/wEXH.png \nhttp://extraimago.com/images/2016/08/24/wEXk.png \nhttp://extraimago.com/images/2016/08/24/wEXo.png\r\n\r\nInfo:\r\n\r\nFormat : MPEG-4\r\nFormat profile : Base Media / Version 2\r\nCodec ID : mp42 (isom/iso2/avc1/mp41)\r\nFile size : 779 MiB\r\nDuration : 2 h 15 min\r\nOverall bit rate mode : Variable\r\nOverall bit rate : 807 kb/s\r\nEncoded date : UTC 2016-05-01 04:10:57\r\nTagged date : UTC 2016-05-01 04:10:57\r\nWriting application : HandBrake 0.10.5 2016021100\r\n\r\nVideo\r\nID : 1\r\nFormat : AVC\r\nFormat/Info : Advanced Video Codec\r\nFormat profile :   \r\nFormat settings, CABAC : Yes\r\nFormat settings, ReFrames : 4 frames\r\nCodec ID : avc1\r\nCodec ID/Info : Advanced Video Coding\r\nDuration : 2 h 15 min\r\nBit rate : 705 kb/s\r\nWidth : 720 pixels\r\nHeight : 304 pixels\r\nDisplay aspect ratio : 2.35:1\r\nFrame rate mode : Variable\r\nFrame rate : 23.976 (24000/1001) FPS\r\nMinimum frame rate : 23.810 FPS\r\nMaximum frame rate : 24.390 FPS\r\nColor space : YUV\r\nChroma subsampling : 4:2:0\r\nBit depth : 8 bits\r\nScan type : Progressive\r\nBits/(Pixel*Frame) : 0.134\r\nStream size : 680 MiB (87%)\r\nWriting library : x264 core 142 r2491 24e4fed\r\nEncoding settings : cabac=1 / ref=3 / deblock=1:0:0 / analyse=0x3:0x113 / me=hex / subme=7 / psy=1 / psy_rd=1.00:0.00 / mixed_ref=1 / me_range=16 / chroma_me=1 / trellis=1 / 8x8dct=1 / cqm=0 / deadzone=21,11 / fast_pskip=1 / chroma_qp_offset=-2 / threads=12 / lookahead_threads=2 / sliced_threads=0 / nr=0 / decimate=1 / interlaced=0 / bluray_compat=0 / constrained_intra=0 / bframes=3 / b_pyramid=2 / b_adapt=1 / b_bias=0 / direct=1 / weightb=1 / open_gop=0 / weightp=2 / keyint=240 / keyint_min=24 / scenecut=40 / intra_refresh=0 / rc_lookahead=40 / rc=abr / mbtree=1 / bitrate=705 / ratetol=1.0 / qcomp=0.60 / qpmin=0 / qpmax=69 / qpstep=4 / vbv_maxrate=17500 / vbv_bufsize=17500 / nal_hrd=none / filler=0 / ip_ratio=1.40 / aq=1:1.00\r\nEncoded date : UTC 2016-05-01 04:10:57\r\nTagged date : UTC 2016-05-01 04:10:57\r\nColor range : Limited\r\nColor primaries : BT.601 NTSC\r\nTransfer characteristics : BT.709\r\nMatrix coefficients : BT.601\r\n\r\nAudio\r\nID : 2\r\nFormat : AAC\r\nFormat/Info : Advanced Audio Codec\r\nFormat profile : LC\r\nCodec ID : 40\r\nDuration : 2 h 15 min\r\nBit rate mode : Variable\r\nBit rate : 96.0 kb/s\r\nChannel(s) : 2 channels\r\nChannel positions : Front: L R\r\nSampling rate : 48.0 kHz\r\nFrame rate : 46.875 FPS (1024 spf)\r\nCompression mode : Lossy\r\nStream size : 92.7 MiB (12%)\r\nTitle : Stereo / Stereo\r\nLanguage : Hindi\r\nDefault : Yes\r\nAlternate group : 1\r\nEncoded date : UTC 2016-05-01 04:10:57\r\nTagged date : UTC 2016-05-01 04:10:57 \r\n \nhttp://www.movierulzfull.in/baaghi-full-movie-watch/\r\n \nhttp://tvmoviereviews.drupalgardens.com/content/baaghi-review","torrent":{"xt":"urn:btih:ed474248971d1f2f0328d4e2a824a27e3323712d","amp;dn":"Baaghi+Hindi+2016+DesiSCR+x264-HDF.mp4","amp;tr":["udp%3A%2F%2Ftracker.leechers-paradise.org%3A6969","udp%3A%2F%2Fzer0day.ch%3A1337","udp%3A%2F%2Fopen.demonii.com%3A1337","udp%3A%2F%2Ftracker.coppersurfer.tk%3A6969","udp%3A%2F%2Fexodus.desync.com%3A6969"],"infoHash":"ed474248971d1f2f0328d4e2a824a27e3323712d","infoHashBuffer":{"type":"Buffer","data":[237,71,66,72,151,29,31,47,3,40,212,226,168,36,162,126,51,35,113,45]},"announce":[],"urlList":[]}}